<svg width="72" height="72" viewBox="0 0 72 72" fill="none" xmlns="http://www.w3.org/2000/svg">
<path d="M34.0412 0.239937C20.0511 1.03599 7.8439 9.83203 2.67712 22.8341C1.46207 25.8941 0.661506 29.3042 0.332195 32.8102C0.201606 34.2611 0.201606 37.4566 0.332195 38.9075C1.01353 46.2188 3.73887 52.892 8.29245 58.4135C14.0497 65.3917 22.044 69.8913 30.9752 71.1672C32.8205 71.4326 33.9106 71.506 36.0852 71.506C38.7027 71.506 40.5877 71.3366 42.9269 70.885C54.3279 68.6944 64.0426 61.0332 68.8233 50.47C70.4472 46.885 71.4521 43.012 71.8382 38.9075C71.9688 37.4566 71.9688 34.2611 71.8382 32.8102C71.56 29.8405 70.9922 27.1531 70.0724 24.4262C67.4493 16.6803 62.1633 10.024 55.1626 5.6429C48.8829 1.71347 41.4678 -0.183495 34.0412 0.239937ZM36.8744 3.76287C38.6232 3.84756 39.0377 3.89837 39.5259 4.07903C40.2584 4.35003 40.5707 4.7904 40.5707 5.54692C40.5707 6.26958 40.3095 6.64784 39.6338 6.92448L39.3329 7.04304L39.5998 7.13902C39.9461 7.25758 40.3549 7.6189 40.5082 7.92942C40.6729 8.26252 40.6729 8.91742 40.5139 9.3465C40.3606 9.7417 39.9688 10.1087 39.5316 10.278C38.9638 10.4869 38.4358 10.5095 36.3975 10.4135C35.3698 10.3684 34.5125 10.3176 34.5011 10.3063C34.4784 10.2837 34.6771 5.61467 34.7623 4.25405L34.7964 3.67818H35.0008C35.1143 3.67818 35.9546 3.7177 36.8744 3.76287ZM31.7985 4.25405L32.0256 4.32745L32.0426 5.19688L32.0597 6.06068L31.8439 6.02116C31.032 5.86873 30.3904 5.8405 29.7885 5.94212C29.2775 6.02116 29.1015 6.12279 29.1015 6.33168C29.1015 6.60832 29.2605 6.66478 30.3336 6.75511C30.9127 6.80592 31.4351 6.87932 31.6565 6.94707C32.6558 7.25758 33.1214 7.91248 33.0646 8.92871C33.0306 9.47635 32.8773 9.80945 32.4571 10.2329C31.6111 11.0684 29.6977 11.4862 28.1022 11.1814L27.8127 11.1249L27.7729 10.278C27.7502 9.80945 27.7445 9.41425 27.7616 9.39731C27.7786 9.38037 27.9944 9.39731 28.2328 9.44247C28.9255 9.56668 29.9532 9.5441 30.4415 9.39166C30.8957 9.25052 30.9922 9.17148 30.9638 8.94565C30.9411 8.71418 30.7822 8.66901 29.7204 8.56739C28.2953 8.43189 27.6934 8.19477 27.3017 7.61326C27.0575 7.25193 26.978 6.95835 26.978 6.43895C26.9724 5.6429 27.4209 5.01623 28.2783 4.60973C28.6246 4.44601 29.3854 4.24276 29.9248 4.16372C30.2655 4.11291 31.577 4.17501 31.7985 4.25405ZM44.5565 4.78475C45.0845 4.95977 45.5103 5.11784 45.5103 5.14043C45.5103 5.15736 45.2151 6.0381 44.8574 7.0882C44.3066 8.70288 44.2044 9.05857 44.2044 9.3465C44.2044 9.58362 44.2385 9.74734 44.3123 9.86591C44.4599 10.103 44.8915 10.3063 45.2662 10.3119C45.516 10.3119 45.5841 10.2893 45.7431 10.1425C45.9873 9.91107 46.0838 9.67395 46.7822 7.58503C47.1171 6.58574 47.4124 5.76711 47.4351 5.76711C47.4919 5.76711 49.2974 6.3712 49.3655 6.41072C49.4337 6.45589 48.1221 10.3063 47.878 10.7579C47.1342 12.1581 45.533 12.5138 43.7275 11.6725C42.4614 11.0854 41.8709 10.1313 42.0412 8.96824C42.115 8.49964 43.4663 4.46859 43.5515 4.46859C43.5799 4.46859 44.0341 4.60973 44.5565 4.78475ZM24.724 8.00846L24.6104 10.391L25.1555 11.4636C25.4507 12.0564 25.6949 12.5533 25.6949 12.5702C25.6949 12.5984 23.9064 13.5018 23.8496 13.5018C23.8325 13.5018 23.577 13.0106 23.2875 12.4065L22.7594 11.3169L20.7949 9.96753C19.7105 9.22794 18.8247 8.60691 18.8247 8.58997C18.8247 8.55045 20.6814 7.6302 20.7609 7.6302C20.7949 7.6302 21.2492 7.95765 21.7715 8.35285C22.2939 8.7537 22.7481 9.09809 22.7878 9.12067C22.8446 9.15454 22.8616 8.90049 22.8503 7.87296L22.8389 6.58574L23.8269 6.1002C24.3719 5.83485 24.8205 5.61467 24.8205 5.62032C24.8262 5.62596 24.7807 6.69865 24.724 8.00846ZM53.8283 9.00776C54.8503 9.35215 55.9631 10.2159 56.5252 11.108L56.6388 11.283L56.054 11.6951C55.736 11.9266 55.3954 12.1694 55.2988 12.2428L55.1171 12.3783L54.9468 12.079C54.7083 11.65 54.2144 11.1757 53.7942 10.9668C53.357 10.7523 52.8915 10.7297 52.494 10.9104C52.1704 11.0572 51.7729 11.4749 51.5572 11.8984C51.4152 12.175 51.3868 12.2992 51.3868 12.6549C51.3868 13.0219 51.4095 13.1178 51.5458 13.3493C51.8467 13.8574 52.5565 14.2639 53.3854 14.4107C53.5955 14.4502 53.7772 14.4841 53.7829 14.4898C53.7999 14.501 53.181 16.1665 53.147 16.2061C53.0845 16.2625 52.3748 16.0423 51.8865 15.8165C49.5416 14.7212 48.6615 12.8694 49.6097 10.9951C50.1548 9.91672 51.0008 9.17148 51.983 8.90049C52.4599 8.77063 53.2605 8.82145 53.8283 9.00776ZM20.5735 13.0445C21.5217 13.6147 22.2882 14.1002 22.2768 14.1228C22.2655 14.1454 21.9191 14.4502 21.5047 14.8003C20.9823 15.235 20.7211 15.4213 20.6587 15.3987C20.6076 15.3761 20.3577 15.235 20.0966 15.0826C19.8411 14.9245 19.614 14.8003 19.5969 14.8003C19.5515 14.8003 18.0185 16.0875 17.9504 16.1835C17.9163 16.2286 17.9788 16.4488 18.1434 16.8271C18.3478 17.3183 18.3762 17.4142 18.3081 17.482C17.9617 17.8151 16.8034 18.741 16.7751 18.7071C16.7183 18.645 14.2087 12.2032 14.2314 12.1807C14.2428 12.1694 14.7083 11.7798 15.2648 11.3112L16.2811 10.4644L17.5643 11.2378C18.274 11.6612 19.6253 12.4742 20.5735 13.0445ZM59.472 13.6203L60.1533 14.422L59.1086 15.3027C58.5352 15.7883 58.0866 16.1891 58.115 16.2004C58.1377 16.2117 58.8247 16.1383 59.6423 16.048C60.4543 15.952 61.181 15.873 61.2605 15.873C61.3911 15.873 61.5274 16.0141 62.8162 17.5272C62.8616 17.578 62.89 17.6344 62.8787 17.6457C62.8673 17.657 61.9702 17.7248 60.8801 17.7982L58.9099 17.928L58.8531 18.1256C58.8247 18.2385 58.609 19.1136 58.3705 20.079C58.1377 21.0388 57.9276 21.8744 57.8993 21.9252C57.8709 21.9986 57.6892 21.8179 57.0589 21.084L56.2641 20.1468L56.7069 18.5942C56.9567 17.7417 57.1441 17.036 57.1328 17.019C57.1157 17.0078 56.6558 17.386 56.0994 17.8546C55.3556 18.4869 55.0717 18.7015 55.0149 18.662C54.9695 18.6337 54.6572 18.2837 54.3109 17.8772L53.6863 17.1489L53.8396 16.9965C54.0554 16.7932 58.7396 12.8243 58.768 12.8243C58.7793 12.8243 59.0973 13.1856 59.472 13.6203ZM38.7538 13.5864C42.9213 14.0889 46.7424 15.6133 50.0242 18.0804C51.7956 19.4072 53.6977 21.3606 54.9752 23.1616C56.9113 25.8885 58.2115 28.9598 58.8191 32.2456C59.103 33.7643 59.1654 34.5152 59.1654 36.3952C59.1654 38.7156 58.9951 40.1044 58.4557 42.1538C57.3883 46.2639 55.3272 49.7812 52.2328 52.796C48.5025 56.4262 43.9887 58.566 38.697 59.2152C37.533 59.3564 34.6942 59.3564 33.5302 59.2152C29.5217 58.724 26.0015 57.386 22.7992 55.1447C21.005 53.8913 19.0235 51.983 17.7062 50.2385C15.191 46.9245 13.692 43.1983 13.164 38.964C13.0902 38.3373 13.0618 37.7332 13.0618 36.3952C13.0618 35.0572 13.0902 34.4531 13.164 33.8264C13.6296 30.0889 14.8616 26.7184 16.8545 23.7488C17.8368 22.2809 18.7112 21.2421 20.0511 19.9379C23.9858 16.1157 28.9142 13.9308 34.5806 13.4792C35.2563 13.4284 38.0213 13.4961 38.7538 13.5864ZM13.6069 17.29C14.9014 18.6281 15.9631 19.7403 15.9745 19.7629C15.9802 19.7855 15.7303 20.2258 15.4181 20.7339C14.9922 21.4284 14.8219 21.6542 14.7481 21.6373C14.697 21.6316 13.7602 21.3437 12.6643 21.0049C11.5742 20.6718 10.6771 20.4008 10.6658 20.4065C10.6601 20.4178 11.3301 21.1178 12.1533 21.9703C13.1186 22.9696 13.6466 23.5512 13.6239 23.6076C13.5614 23.7713 12.5508 25.3691 12.494 25.3917C12.4316 25.4142 6.00998 23.4721 5.94752 23.41C5.91914 23.3874 6.3109 22.7212 6.90139 21.7897L7.10011 21.4735L8.91701 22.2639C9.9163 22.6987 10.7964 23.0769 10.8758 23.1051C10.9553 23.139 10.3365 22.4785 9.50182 21.6485C8.66151 20.813 7.98017 20.1129 7.98017 20.0847C7.98017 20.0169 9.18386 18.0748 9.22361 18.0748C9.24632 18.0748 10.1775 18.3797 11.3017 18.7523C12.636 19.1926 13.3059 19.3903 13.2321 19.3225C13.1697 19.266 12.4316 18.6563 11.5969 17.9675C10.5409 17.0981 10.081 16.6859 10.1037 16.6295C10.1604 16.4771 11.1768 14.8567 11.2165 14.8567C11.2335 14.8567 12.3123 15.952 13.6069 17.29ZM63.9858 20.3274C64.9681 20.8073 65.8311 22.4502 65.9787 24.1214L66.0185 24.5448L65.2236 24.7537C64.7864 24.8666 64.389 24.9626 64.3435 24.9626C64.2811 24.9626 64.2584 24.8384 64.23 24.4375C64.1902 23.8391 64.0313 23.1842 63.8155 22.7043C63.6338 22.2978 63.5146 22.1792 63.2988 22.2075C63.0433 22.2357 63.0149 22.4898 63.1626 23.331C63.2307 23.7149 63.2988 24.1835 63.3159 24.3754C63.3897 25.0981 63.1228 25.9054 62.697 26.2272C62.3961 26.4587 61.9078 26.6563 61.5387 26.6902C60.6757 26.7805 59.8127 26.2272 59.1938 25.1941C58.7225 24.4037 58.3137 23.0317 58.3535 22.3599L58.3705 22.0607L59.1654 21.8461C59.6026 21.7276 59.9717 21.6316 59.9887 21.6316C60.0057 21.6316 60.0511 21.9139 60.0852 22.2526C60.1704 23.0148 60.335 23.6471 60.5792 24.1157C60.8063 24.5674 61.005 24.7255 61.2037 24.6351C61.2832 24.6013 61.3627 24.5053 61.3854 24.4262C61.4025 24.3472 61.3627 23.9238 61.2946 23.4834C61.1299 22.4502 61.1299 21.7671 61.3003 21.3267C61.6863 20.2936 62.9582 19.8193 63.9858 20.3274ZM6.07244 36.7396C6.70267 36.9033 7.52595 37.3888 8.02559 37.9026L8.26406 38.151L7.94043 38.247C7.48053 38.3881 6.873 38.693 6.50395 38.9696C6.33361 39.0995 6.19167 39.1842 6.18031 39.1503C6.16896 39.1221 6.06676 38.9414 5.94752 38.7438C5.55576 38.0833 4.86875 37.5582 4.0625 37.2985C3.89217 37.2421 3.72751 37.1799 3.69912 37.1574C3.64802 37.1066 3.97166 36.8864 4.26122 36.7735C4.73816 36.5815 5.41381 36.5702 6.07244 36.7396ZM67.9205 36.7396C68.2612 36.8525 68.6473 37.0953 68.5849 37.1574C68.5565 37.1799 68.3918 37.2421 68.2215 37.2985C67.4152 37.5582 66.7282 38.0833 66.3364 38.7438C66.2172 38.9414 66.115 39.1221 66.1037 39.1503C66.0923 39.1842 65.9504 39.0995 65.78 38.9696C65.411 38.693 64.8034 38.3881 64.3435 38.247L64.0199 38.151L64.2584 37.9026C64.9 37.2477 65.8254 36.7678 66.7169 36.6323C67.0007 36.5871 67.631 36.6436 67.9205 36.7396ZM3.7559 37.6881C4.68706 38.0042 5.27755 38.4615 5.62389 39.1503L5.82261 39.5399L5.56711 39.8221C5.1867 40.2456 4.81197 40.8723 4.60757 41.4481L4.42588 41.9619L4.1136 41.6344C3.08024 40.5504 2.65441 39.1503 3.02346 38.0663C3.11431 37.7953 3.25625 37.5526 3.31871 37.5526C3.34142 37.5526 3.54014 37.6147 3.7559 37.6881ZM69.1697 37.8461C69.6977 38.8962 69.2832 40.4714 68.1704 41.6344L67.8581 41.9619L67.6764 41.4481C67.472 40.8723 67.0973 40.2456 66.7169 39.8221L66.4614 39.5399L66.6601 39.1503C66.8929 38.6874 67.3698 38.2018 67.8297 37.976C68.1988 37.784 68.846 37.5582 68.9539 37.5695C68.9993 37.5751 69.0959 37.6994 69.1697 37.8461ZM10.0412 38.7551C10.2172 38.8341 10.3648 38.9245 10.3648 38.9527C10.3648 39.0769 10.0071 40.0254 9.87087 40.2569C9.50182 40.8948 8.79777 41.3804 7.96882 41.5836C7.45214 41.7078 7.05469 41.8885 6.65157 42.1877C6.08947 42.6055 5.77151 43.108 5.40246 44.1298L5.36271 44.2428L5.27187 44.1298C4.86875 43.6104 4.74383 42.6845 4.96527 41.8772C5.18102 41.0924 5.58982 40.4432 6.25412 39.8052C6.87868 39.2124 7.36129 38.9245 8.09373 38.6986C8.70125 38.5123 9.56427 38.5349 10.0412 38.7551ZM64.1278 38.6817C64.8489 38.885 65.3939 39.2011 66.0298 39.8052C66.6941 40.4432 67.103 41.0924 67.3187 41.8772C67.5401 42.6845 67.4152 43.6104 67.0121 44.1298L66.9213 44.2428L66.8815 44.1298C66.5125 43.108 66.1945 42.6055 65.6324 42.1877C65.2293 41.8885 64.8318 41.7078 64.3152 41.5836C63.4862 41.3804 62.7822 40.8948 62.4131 40.2569C62.2768 40.031 61.9191 39.0826 61.9191 38.9527C61.9191 38.8906 62.3336 38.6874 62.5834 38.6309C62.9809 38.5349 63.6849 38.5631 64.1278 38.6817ZM11.0859 39.7939C11.8581 41.4368 10.5238 43.9153 8.43439 44.717C7.85526 44.9428 7.1796 45.0332 6.72538 44.9541C6.29955 44.8807 5.74312 44.638 5.77719 44.542C5.79422 44.5025 5.87371 44.2597 5.95888 44C6.15192 43.4298 6.48124 42.9217 6.86165 42.6224C7.25342 42.3176 7.47485 42.2159 8.0994 42.0409C8.78074 41.849 9.12141 41.6852 9.53588 41.3521C9.97307 41.0021 10.3478 40.4488 10.592 39.8052C10.8077 39.2237 10.8134 39.2237 11.0859 39.7939ZM61.692 39.8109C61.9362 40.4488 62.3109 41.0021 62.7481 41.3521C63.1626 41.6852 63.5032 41.849 64.1846 42.0409C64.8091 42.2159 65.0306 42.3176 65.4223 42.6224C65.8027 42.9217 66.132 43.4298 66.3251 44C66.4103 44.2597 66.4897 44.5025 66.5068 44.542C66.5408 44.638 65.9844 44.8807 65.5586 44.9541C65.1044 45.0332 64.4287 44.9428 63.8496 44.717C62.6232 44.2484 61.5558 43.1249 61.1413 41.8715C60.9596 41.3126 60.9369 40.4545 61.0902 40.0367C61.181 39.8052 61.4479 39.3027 61.4876 39.3027C61.499 39.3027 61.5898 39.5286 61.692 39.8109ZM52.9653 56.9456C53.2094 57.3013 53.4025 57.6118 53.4025 57.6401C53.4025 57.6627 52.8404 58.0635 52.1533 58.5208C51.4663 58.9838 50.8929 59.379 50.8758 59.4015C50.8588 59.4298 51.154 59.9266 51.279 60.0734C51.2903 60.0847 51.7048 59.8306 52.1931 59.5032C52.6871 59.1814 53.1583 58.8708 53.2378 58.82L53.3854 58.724L53.8169 59.3733C54.0611 59.729 54.2541 60.0452 54.2541 60.0677C54.2541 60.096 53.8283 60.4065 53.3059 60.7565C52.7779 61.1065 52.3294 61.4171 52.301 61.4396C52.2272 61.5074 52.6757 62.1736 52.7722 62.1397C52.812 62.1228 53.3911 61.7445 54.0611 61.2929C54.7254 60.8412 55.2932 60.4742 55.3215 60.4742C55.367 60.4742 56.2413 61.7332 56.2413 61.7953C56.2413 61.8292 52.0398 64.6577 51.9546 64.6859C51.9035 64.7029 48.2641 59.3902 48.2243 59.2378C48.2073 59.187 52.3975 56.3077 52.4997 56.302C52.5167 56.2964 52.7268 56.59 52.9653 56.9456ZM20.6132 57.0586C21.4479 57.2731 22.521 57.9562 23.1285 58.6619C23.5146 59.1023 23.7303 59.4354 23.6792 59.5088C23.6452 59.5709 22.2598 60.5307 22.2144 60.5307C22.1973 60.5307 22.1065 60.3895 22.01 60.2202C21.7715 59.8024 21.2378 59.283 20.8574 59.0967C20.4543 58.8991 19.9773 58.8878 19.5799 59.0628C19.0519 59.2943 18.5181 60.0395 18.4443 60.6436C18.3876 61.1065 18.5125 61.4114 18.9042 61.801C19.3074 62.2018 19.7389 62.422 20.3464 62.5462C20.5849 62.597 20.7949 62.6478 20.8006 62.6535C20.812 62.6591 20.6757 63.0487 20.494 63.5173C20.2385 64.1778 20.142 64.3698 20.0625 64.3698C19.8978 64.3698 19.0632 64.048 18.6601 63.8278C17.1555 63.0092 16.3265 61.8744 16.3208 60.638C16.3152 60.0508 16.4174 59.6556 16.7296 59.0571C17.2577 58.0522 18.115 57.3013 19.0121 57.0586C19.4096 56.9569 20.1988 56.9513 20.6132 57.0586ZM47.7985 60.3726C47.9461 60.7791 48.0483 61.1291 48.0256 61.1517C48.0029 61.1743 47.3499 61.4284 46.5778 61.7163C45.7999 62.0042 45.1697 62.2639 45.1697 62.2978C45.1697 62.4051 45.4138 63.0148 45.4536 63.0148C45.4763 63.0148 45.7715 62.9132 46.1122 62.7833C46.4528 62.6535 46.9638 62.4672 47.2477 62.3655L47.7701 62.1792L48.0597 62.9414C48.2186 63.3648 48.3435 63.7149 48.3379 63.7205C48.3265 63.7262 47.8212 63.9181 47.2137 64.1439C46.6061 64.3698 46.0895 64.573 46.0611 64.59C45.9986 64.6521 46.2825 65.3578 46.3734 65.3521C46.4131 65.3465 47.0831 65.1094 47.8553 64.8214C48.6274 64.5335 49.269 64.3077 49.2804 64.319C49.3144 64.3698 49.8254 65.7643 49.8254 65.8151C49.8254 65.8885 44.9993 67.6669 44.9426 67.6104C44.9198 67.5822 44.3805 66.1877 43.7559 64.5109C42.8702 62.1623 42.626 61.4509 42.6828 61.4171C42.7736 61.355 47.3897 59.633 47.4692 59.633C47.5032 59.6274 47.6509 59.9605 47.7985 60.3726ZM26.7566 60.2484C27.9206 60.525 28.9085 61.2364 29.3627 62.1228C29.8056 62.9866 29.7431 64.2286 29.2151 65.2731C28.4713 66.7353 27.0291 67.4298 25.4223 67.1023C24.2073 66.8539 23.1455 66.1143 22.6913 65.1941C22.4642 64.7368 22.4074 64.4432 22.4017 63.8278C22.3961 62.0494 23.6509 60.4404 25.2406 60.175C25.6267 60.1129 26.3251 60.1468 26.7566 60.2484ZM42.098 62.0946C42.132 62.3712 42.1775 62.7438 42.1945 62.9358L42.2286 63.2745L40.7637 63.4552C39.9518 63.5568 39.2818 63.6358 39.2648 63.6358C39.2477 63.6358 39.2534 63.8391 39.2875 64.0875C39.3499 64.6238 39.2023 64.59 40.6558 64.4037C41.2179 64.3303 41.6835 64.2738 41.6892 64.2794C41.7232 64.3077 41.8936 65.8941 41.8652 65.9224C41.8482 65.9393 41.3315 66.0183 40.7069 66.0974C40.088 66.1764 39.577 66.2442 39.5714 66.2498C39.56 66.2555 39.6168 66.7466 39.6963 67.3338C39.7701 67.9266 39.8269 68.446 39.8155 68.4912C39.8042 68.5533 39.577 68.6041 38.8105 68.7001C38.2655 68.7678 37.7999 68.8017 37.7829 68.7847C37.7374 68.7283 36.9312 62.2696 36.9653 62.2357C36.9993 62.1962 41.5132 61.6203 41.8255 61.609L42.0299 61.6034L42.098 62.0946ZM33.7176 62.0212C35.0575 62.1623 36.1647 62.2865 36.1817 62.3034C36.2215 62.343 36.0795 63.8786 36.0341 63.9294C36.0114 63.9576 35.3698 63.9125 34.609 63.8334C33.8425 63.7544 33.1782 63.6923 33.1214 63.6923C33.0476 63.6923 33.0192 63.777 32.9908 64.1157C32.9681 64.3528 32.9624 64.5561 32.9738 64.573C32.9908 64.5843 33.5075 64.6464 34.132 64.7142C34.7509 64.7763 35.2676 64.8384 35.279 64.8497C35.3017 64.8722 35.137 66.4643 35.1086 66.4926C35.0973 66.4982 34.5919 66.4587 33.9901 66.3966C33.3826 66.3345 32.8602 66.295 32.8205 66.3063C32.7807 66.3232 32.7183 66.7523 32.6558 67.4241C32.5934 68.0282 32.5309 68.5363 32.5139 68.5589C32.4685 68.6097 30.5664 68.4347 30.4983 68.3726C30.4699 68.3444 30.5834 66.9894 30.7765 65.0473C31.0604 62.2696 31.1228 61.7727 31.2023 61.7727C31.2477 61.7727 32.3833 61.8857 33.7176 62.0212Z" fill="#BD0707"/>
</svg>
